<mxfile host="app.diagrams.net" modified="2020-10-27T13:14:50.011Z" agent="5.0 (Windows NT 10.0; Win64; x64) AppleWebKit/537.36 (KHTML, like Gecko) Chrome/86.0.4240.111 Safari/537.36" etag="QW3x-kDhvqHyTb1qTJaj" version="13.6.5" type="github">
  <diagram id="C5RBs43oDa-KdzZeNtuy" name="Page-1">
    <mxGraphModel dx="1200" dy="1286" grid="0" gridSize="10" guides="1" tooltips="1" connect="1" arrows="1" fold="1" page="1" pageScale="1" pageWidth="827" pageHeight="1169" background="#F4F1DE" math="0" shadow="1">
      <root>
        <mxCell id="WIyWlLk6GJQsqaUBKTNV-0" />
        <mxCell id="WIyWlLk6GJQsqaUBKTNV-1" parent="WIyWlLk6GJQsqaUBKTNV-0" />
        <mxCell id="Z8EWrzKrz8ywu-EtmhU7-21" value="" style="endArrow=classic;html=1;strokeColor=#E07A5F;fillColor=#F2CC8F;fontColor=#393C56;entryX=1;entryY=0.109;entryDx=0;entryDy=0;entryPerimeter=0;exitX=0;exitY=0.5;exitDx=0;exitDy=0;" edge="1" parent="WIyWlLk6GJQsqaUBKTNV-1" source="Z8EWrzKrz8ywu-EtmhU7-26" target="Z8EWrzKrz8ywu-EtmhU7-15">
          <mxGeometry width="50" height="50" relative="1" as="geometry">
            <mxPoint x="331" y="420" as="sourcePoint" />
            <mxPoint x="213" y="445" as="targetPoint" />
          </mxGeometry>
        </mxCell>
        <mxCell id="Z8EWrzKrz8ywu-EtmhU7-32" value="" style="endArrow=classic;html=1;strokeColor=#E07A5F;fillColor=#F2CC8F;fontColor=#393C56;entryX=1;entryY=0.092;entryDx=0;entryDy=0;entryPerimeter=0;exitX=0;exitY=0.5;exitDx=0;exitDy=0;" edge="1" parent="WIyWlLk6GJQsqaUBKTNV-1" source="Z8EWrzKrz8ywu-EtmhU7-28" target="Z8EWrzKrz8ywu-EtmhU7-22">
          <mxGeometry width="50" height="50" relative="1" as="geometry">
            <mxPoint x="278" y="377" as="sourcePoint" />
            <mxPoint x="178" y="400.0039999999999" as="targetPoint" />
          </mxGeometry>
        </mxCell>
        <mxCell id="Z8EWrzKrz8ywu-EtmhU7-33" value="" style="endArrow=classic;html=1;strokeColor=#E07A5F;fillColor=#F2CC8F;fontColor=#393C56;exitX=0;exitY=0.5;exitDx=0;exitDy=0;entryX=0.994;entryY=0.077;entryDx=0;entryDy=0;entryPerimeter=0;" edge="1" parent="WIyWlLk6GJQsqaUBKTNV-1" source="Z8EWrzKrz8ywu-EtmhU7-27" target="zkfFHV4jXpPFQw0GAbJ--0">
          <mxGeometry width="50" height="50" relative="1" as="geometry">
            <mxPoint x="288" y="387" as="sourcePoint" />
            <mxPoint x="204" y="40" as="targetPoint" />
          </mxGeometry>
        </mxCell>
        <mxCell id="Z8EWrzKrz8ywu-EtmhU7-34" value="" style="endArrow=classic;html=1;strokeColor=#E07A5F;fillColor=#F2CC8F;fontColor=#393C56;entryX=1.006;entryY=0.092;entryDx=0;entryDy=0;entryPerimeter=0;exitX=0;exitY=0.5;exitDx=0;exitDy=0;" edge="1" parent="WIyWlLk6GJQsqaUBKTNV-1" source="Z8EWrzKrz8ywu-EtmhU7-30" target="Z8EWrzKrz8ywu-EtmhU7-0">
          <mxGeometry width="50" height="50" relative="1" as="geometry">
            <mxPoint x="298" y="397" as="sourcePoint" />
            <mxPoint x="198" y="420.0039999999999" as="targetPoint" />
          </mxGeometry>
        </mxCell>
        <mxCell id="Z8EWrzKrz8ywu-EtmhU7-45" value="" style="endArrow=classic;html=1;strokeColor=#E07A5F;fillColor=#F2CC8F;fontColor=#393C56;entryX=1.002;entryY=0.095;entryDx=0;entryDy=0;entryPerimeter=0;exitX=0;exitY=0.25;exitDx=0;exitDy=0;" edge="1" parent="WIyWlLk6GJQsqaUBKTNV-1" source="Z8EWrzKrz8ywu-EtmhU7-35" target="Z8EWrzKrz8ywu-EtmhU7-22">
          <mxGeometry width="50" height="50" relative="1" as="geometry">
            <mxPoint x="268" y="367" as="sourcePoint" />
            <mxPoint x="168" y="390.0039999999999" as="targetPoint" />
          </mxGeometry>
        </mxCell>
        <mxCell id="Z8EWrzKrz8ywu-EtmhU7-5" value="Coordinate: struct" style="swimlane;fontStyle=2;align=center;verticalAlign=top;childLayout=stackLayout;horizontal=1;startSize=26;horizontalStack=0;resizeParent=1;resizeLast=0;collapsible=1;marginBottom=0;shadow=0;strokeWidth=1;fillColor=#F2CC8F;strokeColor=#E07A5F;fontColor=#393C56;" vertex="1" parent="WIyWlLk6GJQsqaUBKTNV-1">
          <mxGeometry x="23" y="664" width="160" height="78" as="geometry">
            <mxRectangle x="220" y="120" width="160" height="26" as="alternateBounds" />
          </mxGeometry>
        </mxCell>
        <mxCell id="Z8EWrzKrz8ywu-EtmhU7-6" value="x : int" style="text;align=left;verticalAlign=top;spacingLeft=4;spacingRight=4;overflow=hidden;rotatable=0;points=[[0,0.5],[1,0.5]];portConstraint=eastwest;fillColor=#F2CC8F;strokeColor=#E07A5F;fontColor=#393C56;" vertex="1" parent="Z8EWrzKrz8ywu-EtmhU7-5">
          <mxGeometry y="26" width="160" height="26" as="geometry" />
        </mxCell>
        <mxCell id="Z8EWrzKrz8ywu-EtmhU7-7" value="y : int" style="text;align=left;verticalAlign=top;spacingLeft=4;spacingRight=4;overflow=hidden;rotatable=0;points=[[0,0.5],[1,0.5]];portConstraint=eastwest;shadow=0;html=0;fillColor=#F2CC8F;strokeColor=#E07A5F;fontColor=#393C56;" vertex="1" parent="Z8EWrzKrz8ywu-EtmhU7-5">
          <mxGeometry y="52" width="160" height="26" as="geometry" />
        </mxCell>
        <mxCell id="zkfFHV4jXpPFQw0GAbJ--0" value="ObjectDesc : enum" style="swimlane;fontStyle=2;align=center;verticalAlign=top;childLayout=stackLayout;horizontal=1;startSize=26;horizontalStack=0;resizeParent=1;resizeLast=0;collapsible=1;marginBottom=0;shadow=0;strokeWidth=1;fillColor=#F2CC8F;strokeColor=#E07A5F;fontColor=#393C56;" parent="WIyWlLk6GJQsqaUBKTNV-1" vertex="1">
          <mxGeometry x="23" y="337" width="160" height="130" as="geometry">
            <mxRectangle x="220" y="120" width="160" height="26" as="alternateBounds" />
          </mxGeometry>
        </mxCell>
        <mxCell id="zkfFHV4jXpPFQw0GAbJ--1" value="Human" style="text;align=left;verticalAlign=top;spacingLeft=4;spacingRight=4;overflow=hidden;rotatable=0;points=[[0,0.5],[1,0.5]];portConstraint=eastwest;fillColor=#F2CC8F;strokeColor=#E07A5F;fontColor=#393C56;" parent="zkfFHV4jXpPFQw0GAbJ--0" vertex="1">
          <mxGeometry y="26" width="160" height="26" as="geometry" />
        </mxCell>
        <mxCell id="zkfFHV4jXpPFQw0GAbJ--2" value="NonHuman" style="text;align=left;verticalAlign=top;spacingLeft=4;spacingRight=4;overflow=hidden;rotatable=0;points=[[0,0.5],[1,0.5]];portConstraint=eastwest;shadow=0;html=0;fillColor=#F2CC8F;strokeColor=#E07A5F;fontColor=#393C56;" parent="zkfFHV4jXpPFQw0GAbJ--0" vertex="1">
          <mxGeometry y="52" width="160" height="26" as="geometry" />
        </mxCell>
        <mxCell id="zkfFHV4jXpPFQw0GAbJ--3" value="Vehicle" style="text;align=left;verticalAlign=top;spacingLeft=4;spacingRight=4;overflow=hidden;rotatable=0;points=[[0,0.5],[1,0.5]];portConstraint=eastwest;shadow=0;html=0;fillColor=#F2CC8F;strokeColor=#E07A5F;fontColor=#393C56;" parent="zkfFHV4jXpPFQw0GAbJ--0" vertex="1">
          <mxGeometry y="78" width="160" height="26" as="geometry" />
        </mxCell>
        <mxCell id="zkfFHV4jXpPFQw0GAbJ--5" value="StaticObject" style="text;align=left;verticalAlign=top;spacingLeft=4;spacingRight=4;overflow=hidden;rotatable=0;points=[[0,0.5],[1,0.5]];portConstraint=eastwest;fillColor=#F2CC8F;strokeColor=#E07A5F;fontColor=#393C56;" parent="zkfFHV4jXpPFQw0GAbJ--0" vertex="1">
          <mxGeometry y="104" width="160" height="26" as="geometry" />
        </mxCell>
        <mxCell id="Z8EWrzKrz8ywu-EtmhU7-0" value="ObjectForm : enum" style="swimlane;fontStyle=2;align=center;verticalAlign=top;childLayout=stackLayout;horizontal=1;startSize=26;horizontalStack=0;resizeParent=1;resizeLast=0;collapsible=1;marginBottom=0;shadow=0;strokeWidth=1;fillColor=#F2CC8F;strokeColor=#E07A5F;fontColor=#393C56;" vertex="1" parent="WIyWlLk6GJQsqaUBKTNV-1">
          <mxGeometry x="23" y="508" width="160" height="130" as="geometry">
            <mxRectangle x="220" y="120" width="160" height="26" as="alternateBounds" />
          </mxGeometry>
        </mxCell>
        <mxCell id="Z8EWrzKrz8ywu-EtmhU7-1" value="Cube" style="text;align=left;verticalAlign=top;spacingLeft=4;spacingRight=4;overflow=hidden;rotatable=0;points=[[0,0.5],[1,0.5]];portConstraint=eastwest;fillColor=#F2CC8F;strokeColor=#E07A5F;fontColor=#393C56;" vertex="1" parent="Z8EWrzKrz8ywu-EtmhU7-0">
          <mxGeometry y="26" width="160" height="26" as="geometry" />
        </mxCell>
        <mxCell id="Z8EWrzKrz8ywu-EtmhU7-2" value="Sphere" style="text;align=left;verticalAlign=top;spacingLeft=4;spacingRight=4;overflow=hidden;rotatable=0;points=[[0,0.5],[1,0.5]];portConstraint=eastwest;shadow=0;html=0;fillColor=#F2CC8F;strokeColor=#E07A5F;fontColor=#393C56;" vertex="1" parent="Z8EWrzKrz8ywu-EtmhU7-0">
          <mxGeometry y="52" width="160" height="26" as="geometry" />
        </mxCell>
        <mxCell id="Z8EWrzKrz8ywu-EtmhU7-3" value="Pyramid" style="text;align=left;verticalAlign=top;spacingLeft=4;spacingRight=4;overflow=hidden;rotatable=0;points=[[0,0.5],[1,0.5]];portConstraint=eastwest;shadow=0;html=0;fillColor=#F2CC8F;strokeColor=#E07A5F;fontColor=#393C56;" vertex="1" parent="Z8EWrzKrz8ywu-EtmhU7-0">
          <mxGeometry y="78" width="160" height="26" as="geometry" />
        </mxCell>
        <mxCell id="Z8EWrzKrz8ywu-EtmhU7-4" value="Cone" style="text;align=left;verticalAlign=top;spacingLeft=4;spacingRight=4;overflow=hidden;rotatable=0;points=[[0,0.5],[1,0.5]];portConstraint=eastwest;fillColor=#F2CC8F;strokeColor=#E07A5F;fontColor=#393C56;" vertex="1" parent="Z8EWrzKrz8ywu-EtmhU7-0">
          <mxGeometry y="104" width="160" height="26" as="geometry" />
        </mxCell>
        <mxCell id="Z8EWrzKrz8ywu-EtmhU7-15" value="MsgType: struct" style="swimlane;fontStyle=2;align=center;verticalAlign=top;childLayout=stackLayout;horizontal=1;startSize=26;horizontalStack=0;resizeParent=1;resizeLast=0;collapsible=1;marginBottom=0;shadow=0;strokeWidth=1;fillColor=#F2CC8F;strokeColor=#E07A5F;fontColor=#393C56;" vertex="1" parent="WIyWlLk6GJQsqaUBKTNV-1">
          <mxGeometry x="23" y="142" width="160" height="156" as="geometry">
            <mxRectangle x="220" y="120" width="160" height="26" as="alternateBounds" />
          </mxGeometry>
        </mxCell>
        <mxCell id="Z8EWrzKrz8ywu-EtmhU7-16" value="Join" style="text;align=left;verticalAlign=top;spacingLeft=4;spacingRight=4;overflow=hidden;rotatable=0;points=[[0,0.5],[1,0.5]];portConstraint=eastwest;fillColor=#F2CC8F;strokeColor=#E07A5F;fontColor=#393C56;" vertex="1" parent="Z8EWrzKrz8ywu-EtmhU7-15">
          <mxGeometry y="26" width="160" height="26" as="geometry" />
        </mxCell>
        <mxCell id="Z8EWrzKrz8ywu-EtmhU7-17" value="Leave" style="text;align=left;verticalAlign=top;spacingLeft=4;spacingRight=4;overflow=hidden;rotatable=0;points=[[0,0.5],[1,0.5]];portConstraint=eastwest;shadow=0;html=0;fillColor=#F2CC8F;strokeColor=#E07A5F;fontColor=#393C56;" vertex="1" parent="Z8EWrzKrz8ywu-EtmhU7-15">
          <mxGeometry y="52" width="160" height="26" as="geometry" />
        </mxCell>
        <mxCell id="Z8EWrzKrz8ywu-EtmhU7-18" value="Change" style="text;align=left;verticalAlign=top;spacingLeft=4;spacingRight=4;overflow=hidden;rotatable=0;points=[[0,0.5],[1,0.5]];portConstraint=eastwest;shadow=0;html=0;fillColor=#F2CC8F;strokeColor=#E07A5F;fontColor=#393C56;" vertex="1" parent="Z8EWrzKrz8ywu-EtmhU7-15">
          <mxGeometry y="78" width="160" height="26" as="geometry" />
        </mxCell>
        <mxCell id="Z8EWrzKrz8ywu-EtmhU7-19" value="Event" style="text;align=left;verticalAlign=top;spacingLeft=4;spacingRight=4;overflow=hidden;rotatable=0;points=[[0,0.5],[1,0.5]];portConstraint=eastwest;shadow=0;html=0;fillColor=#F2CC8F;strokeColor=#E07A5F;fontColor=#393C56;" vertex="1" parent="Z8EWrzKrz8ywu-EtmhU7-15">
          <mxGeometry y="104" width="160" height="26" as="geometry" />
        </mxCell>
        <mxCell id="Z8EWrzKrz8ywu-EtmhU7-20" value="TextMessage" style="text;align=left;verticalAlign=top;spacingLeft=4;spacingRight=4;overflow=hidden;rotatable=0;points=[[0,0.5],[1,0.5]];portConstraint=eastwest;shadow=0;html=0;fillColor=#F2CC8F;strokeColor=#E07A5F;fontColor=#393C56;" vertex="1" parent="Z8EWrzKrz8ywu-EtmhU7-15">
          <mxGeometry y="130" width="160" height="26" as="geometry" />
        </mxCell>
        <mxCell id="Z8EWrzKrz8ywu-EtmhU7-82" value="" style="endArrow=classic;html=1;strokeColor=#E07A5F;fillColor=#F2CC8F;fontColor=#393C56;entryX=1.003;entryY=0.094;entryDx=0;entryDy=0;entryPerimeter=0;exitX=0;exitY=0.5;exitDx=0;exitDy=0;" edge="1" parent="WIyWlLk6GJQsqaUBKTNV-1" source="Z8EWrzKrz8ywu-EtmhU7-52" target="Z8EWrzKrz8ywu-EtmhU7-22">
          <mxGeometry width="50" height="50" relative="1" as="geometry">
            <mxPoint x="548" y="129" as="sourcePoint" />
            <mxPoint x="451.9599999999998" y="123.03999999999996" as="targetPoint" />
          </mxGeometry>
        </mxCell>
        <mxCell id="Z8EWrzKrz8ywu-EtmhU7-83" value="" style="endArrow=classic;html=1;strokeColor=#E07A5F;fillColor=#F2CC8F;fontColor=#393C56;entryX=0.997;entryY=0.169;entryDx=0;entryDy=0;entryPerimeter=0;exitX=0;exitY=0.5;exitDx=0;exitDy=0;" edge="1" parent="WIyWlLk6GJQsqaUBKTNV-1" source="Z8EWrzKrz8ywu-EtmhU7-54" target="Z8EWrzKrz8ywu-EtmhU7-47">
          <mxGeometry width="50" height="50" relative="1" as="geometry">
            <mxPoint x="419" y="224" as="sourcePoint" />
            <mxPoint x="360.9599999999998" y="313.03999999999996" as="targetPoint" />
          </mxGeometry>
        </mxCell>
        <mxCell id="Z8EWrzKrz8ywu-EtmhU7-99" value="" style="endArrow=classic;html=1;strokeColor=#E07A5F;fillColor=#F2CC8F;fontColor=#393C56;entryX=0.998;entryY=0.141;entryDx=0;entryDy=0;exitX=0;exitY=0.5;exitDx=0;exitDy=0;entryPerimeter=0;" edge="1" parent="WIyWlLk6GJQsqaUBKTNV-1" source="Z8EWrzKrz8ywu-EtmhU7-85" target="Z8EWrzKrz8ywu-EtmhU7-52">
          <mxGeometry width="50" height="50" relative="1" as="geometry">
            <mxPoint x="538" y="119" as="sourcePoint" />
            <mxPoint x="441.9599999999998" y="113.03999999999996" as="targetPoint" />
          </mxGeometry>
        </mxCell>
        <mxCell id="Z8EWrzKrz8ywu-EtmhU7-100" value="" style="endArrow=classic;html=1;strokeColor=#E07A5F;fillColor=#F2CC8F;fontColor=#393C56;entryX=1.006;entryY=0.092;entryDx=0;entryDy=0;entryPerimeter=0;exitX=0;exitY=0.5;exitDx=0;exitDy=0;" edge="1" parent="WIyWlLk6GJQsqaUBKTNV-1" source="Z8EWrzKrz8ywu-EtmhU7-84" target="zkfFHV4jXpPFQw0GAbJ--0">
          <mxGeometry width="50" height="50" relative="1" as="geometry">
            <mxPoint x="548" y="129" as="sourcePoint" />
            <mxPoint x="451.9599999999998" y="123.03999999999996" as="targetPoint" />
          </mxGeometry>
        </mxCell>
        <mxCell id="Z8EWrzKrz8ywu-EtmhU7-101" value="" style="endArrow=classic;html=1;strokeColor=#E07A5F;fillColor=#F2CC8F;fontColor=#393C56;entryX=1.006;entryY=0.1;entryDx=0;entryDy=0;entryPerimeter=0;exitX=0;exitY=0.5;exitDx=0;exitDy=0;" edge="1" parent="WIyWlLk6GJQsqaUBKTNV-1" source="Z8EWrzKrz8ywu-EtmhU7-87" target="Z8EWrzKrz8ywu-EtmhU7-0">
          <mxGeometry width="50" height="50" relative="1" as="geometry">
            <mxPoint x="558" y="139" as="sourcePoint" />
            <mxPoint x="461.9599999999998" y="133.03999999999996" as="targetPoint" />
          </mxGeometry>
        </mxCell>
        <mxCell id="Z8EWrzKrz8ywu-EtmhU7-107" value="" style="endArrow=classic;html=1;strokeColor=#E07A5F;fillColor=#F2CC8F;fontColor=#393C56;exitX=0;exitY=0.75;exitDx=0;exitDy=0;entryX=1.001;entryY=0.136;entryDx=0;entryDy=0;entryPerimeter=0;" edge="1" parent="WIyWlLk6GJQsqaUBKTNV-1" source="Z8EWrzKrz8ywu-EtmhU7-102" target="Z8EWrzKrz8ywu-EtmhU7-52">
          <mxGeometry width="50" height="50" relative="1" as="geometry">
            <mxPoint x="538" y="119" as="sourcePoint" />
            <mxPoint x="757" y="-53" as="targetPoint" />
          </mxGeometry>
        </mxCell>
        <mxCell id="Z8EWrzKrz8ywu-EtmhU7-52" value="ChangeMsg" style="swimlane;fontStyle=2;align=center;verticalAlign=top;childLayout=stackLayout;horizontal=1;startSize=26;horizontalStack=0;resizeParent=1;resizeLast=0;collapsible=1;marginBottom=0;shadow=0;strokeWidth=1;fillColor=#F2CC8F;strokeColor=#E07A5F;fontColor=#393C56;" vertex="1" parent="WIyWlLk6GJQsqaUBKTNV-1">
          <mxGeometry x="437" y="150" width="160" height="78" as="geometry">
            <mxRectangle x="220" y="120" width="160" height="26" as="alternateBounds" />
          </mxGeometry>
        </mxCell>
        <mxCell id="Z8EWrzKrz8ywu-EtmhU7-53" value="head : MsgHead" style="text;align=left;verticalAlign=top;spacingLeft=4;spacingRight=4;overflow=hidden;rotatable=0;points=[[0,0.5],[1,0.5]];portConstraint=eastwest;fillColor=#F2CC8F;strokeColor=#E07A5F;fontColor=#393C56;" vertex="1" parent="Z8EWrzKrz8ywu-EtmhU7-52">
          <mxGeometry y="26" width="160" height="26" as="geometry" />
        </mxCell>
        <mxCell id="Z8EWrzKrz8ywu-EtmhU7-54" value="type : ChangeType" style="text;align=left;verticalAlign=top;spacingLeft=4;spacingRight=4;overflow=hidden;rotatable=0;points=[[0,0.5],[1,0.5]];portConstraint=eastwest;shadow=0;html=0;fillColor=#F2CC8F;strokeColor=#E07A5F;fontColor=#393C56;" vertex="1" parent="Z8EWrzKrz8ywu-EtmhU7-52">
          <mxGeometry y="52" width="160" height="26" as="geometry" />
        </mxCell>
        <mxCell id="Z8EWrzKrz8ywu-EtmhU7-102" value="PlayerLeaveMsg: struct" style="swimlane;fontStyle=2;align=center;verticalAlign=top;childLayout=stackLayout;horizontal=1;startSize=26;horizontalStack=0;resizeParent=1;resizeLast=0;collapsible=1;marginBottom=0;shadow=0;strokeWidth=1;fillColor=#F2CC8F;strokeColor=#E07A5F;fontColor=#393C56;" vertex="1" parent="WIyWlLk6GJQsqaUBKTNV-1">
          <mxGeometry x="712" y="302" width="160" height="52" as="geometry">
            <mxRectangle x="220" y="120" width="160" height="26" as="alternateBounds" />
          </mxGeometry>
        </mxCell>
        <mxCell id="Z8EWrzKrz8ywu-EtmhU7-103" value="msg : ChangeMsg" style="text;align=left;verticalAlign=top;spacingLeft=4;spacingRight=4;overflow=hidden;rotatable=0;points=[[0,0.5],[1,0.5]];portConstraint=eastwest;fillColor=#F2CC8F;strokeColor=#E07A5F;fontColor=#393C56;" vertex="1" parent="Z8EWrzKrz8ywu-EtmhU7-102">
          <mxGeometry y="26" width="160" height="26" as="geometry" />
        </mxCell>
        <mxCell id="Z8EWrzKrz8ywu-EtmhU7-27" value="JoinMsg: struct" style="swimlane;fontStyle=2;align=center;verticalAlign=top;childLayout=stackLayout;horizontal=1;startSize=26;horizontalStack=0;resizeParent=1;resizeLast=0;collapsible=1;marginBottom=0;shadow=0;strokeWidth=1;fillColor=#F2CC8F;strokeColor=#E07A5F;fontColor=#393C56;" vertex="1" parent="WIyWlLk6GJQsqaUBKTNV-1">
          <mxGeometry x="712" y="135" width="160" height="130" as="geometry">
            <mxRectangle x="220" y="120" width="160" height="26" as="alternateBounds" />
          </mxGeometry>
        </mxCell>
        <mxCell id="Z8EWrzKrz8ywu-EtmhU7-28" value="head : MsgHead" style="text;align=left;verticalAlign=top;spacingLeft=4;spacingRight=4;overflow=hidden;rotatable=0;points=[[0,0.5],[1,0.5]];portConstraint=eastwest;fillColor=#F2CC8F;strokeColor=#E07A5F;fontColor=#393C56;" vertex="1" parent="Z8EWrzKrz8ywu-EtmhU7-27">
          <mxGeometry y="26" width="160" height="26" as="geometry" />
        </mxCell>
        <mxCell id="Z8EWrzKrz8ywu-EtmhU7-29" value="desc : ObjectDesc" style="text;align=left;verticalAlign=top;spacingLeft=4;spacingRight=4;overflow=hidden;rotatable=0;points=[[0,0.5],[1,0.5]];portConstraint=eastwest;shadow=0;html=0;fillColor=#F2CC8F;strokeColor=#E07A5F;fontColor=#393C56;" vertex="1" parent="Z8EWrzKrz8ywu-EtmhU7-27">
          <mxGeometry y="52" width="160" height="26" as="geometry" />
        </mxCell>
        <mxCell id="Z8EWrzKrz8ywu-EtmhU7-30" value="form : ObjectForm" style="text;align=left;verticalAlign=top;spacingLeft=4;spacingRight=4;overflow=hidden;rotatable=0;points=[[0,0.5],[1,0.5]];portConstraint=eastwest;shadow=0;html=0;fillColor=#F2CC8F;strokeColor=#E07A5F;fontColor=#393C56;" vertex="1" parent="Z8EWrzKrz8ywu-EtmhU7-27">
          <mxGeometry y="78" width="160" height="26" as="geometry" />
        </mxCell>
        <mxCell id="Z8EWrzKrz8ywu-EtmhU7-31" value="name : char[]" style="text;align=left;verticalAlign=top;spacingLeft=4;spacingRight=4;overflow=hidden;rotatable=0;points=[[0,0.5],[1,0.5]];portConstraint=eastwest;shadow=0;html=0;fillColor=#F2CC8F;strokeColor=#E07A5F;fontColor=#393C56;" vertex="1" parent="Z8EWrzKrz8ywu-EtmhU7-27">
          <mxGeometry y="104" width="160" height="26" as="geometry" />
        </mxCell>
        <mxCell id="Z8EWrzKrz8ywu-EtmhU7-35" value="LeaveMsg: struct" style="swimlane;fontStyle=2;align=center;verticalAlign=top;childLayout=stackLayout;horizontal=1;startSize=26;horizontalStack=0;resizeParent=1;resizeLast=0;collapsible=1;marginBottom=0;shadow=0;strokeWidth=1;fillColor=#F2CC8F;strokeColor=#E07A5F;fontColor=#393C56;" vertex="1" parent="WIyWlLk6GJQsqaUBKTNV-1">
          <mxGeometry x="712" y="45" width="160" height="52" as="geometry">
            <mxRectangle x="220" y="120" width="160" height="26" as="alternateBounds" />
          </mxGeometry>
        </mxCell>
        <mxCell id="Z8EWrzKrz8ywu-EtmhU7-36" value="head : MsgHead" style="text;align=left;verticalAlign=top;spacingLeft=4;spacingRight=4;overflow=hidden;rotatable=0;points=[[0,0.5],[1,0.5]];portConstraint=eastwest;fillColor=#F2CC8F;strokeColor=#E07A5F;fontColor=#393C56;" vertex="1" parent="Z8EWrzKrz8ywu-EtmhU7-35">
          <mxGeometry y="26" width="160" height="26" as="geometry" />
        </mxCell>
        <mxCell id="Z8EWrzKrz8ywu-EtmhU7-84" value="NewPlayerMsg: struct" style="swimlane;fontStyle=2;align=center;verticalAlign=top;childLayout=stackLayout;horizontal=1;startSize=26;horizontalStack=0;resizeParent=1;resizeLast=0;collapsible=1;marginBottom=0;shadow=0;strokeWidth=1;fillColor=#F2CC8F;strokeColor=#E07A5F;fontColor=#393C56;" vertex="1" parent="WIyWlLk6GJQsqaUBKTNV-1">
          <mxGeometry x="712" y="378" width="160" height="130" as="geometry">
            <mxRectangle x="220" y="120" width="160" height="26" as="alternateBounds" />
          </mxGeometry>
        </mxCell>
        <mxCell id="Z8EWrzKrz8ywu-EtmhU7-85" value="msg : ChangeMsg" style="text;align=left;verticalAlign=top;spacingLeft=4;spacingRight=4;overflow=hidden;rotatable=0;points=[[0,0.5],[1,0.5]];portConstraint=eastwest;fillColor=#F2CC8F;strokeColor=#E07A5F;fontColor=#393C56;" vertex="1" parent="Z8EWrzKrz8ywu-EtmhU7-84">
          <mxGeometry y="26" width="160" height="26" as="geometry" />
        </mxCell>
        <mxCell id="Z8EWrzKrz8ywu-EtmhU7-86" value="desc : ObjectDesc" style="text;align=left;verticalAlign=top;spacingLeft=4;spacingRight=4;overflow=hidden;rotatable=0;points=[[0,0.5],[1,0.5]];portConstraint=eastwest;shadow=0;html=0;fillColor=#F2CC8F;strokeColor=#E07A5F;fontColor=#393C56;" vertex="1" parent="Z8EWrzKrz8ywu-EtmhU7-84">
          <mxGeometry y="52" width="160" height="26" as="geometry" />
        </mxCell>
        <mxCell id="Z8EWrzKrz8ywu-EtmhU7-87" value="form : ObjectForm" style="text;align=left;verticalAlign=top;spacingLeft=4;spacingRight=4;overflow=hidden;rotatable=0;points=[[0,0.5],[1,0.5]];portConstraint=eastwest;shadow=0;html=0;fillColor=#F2CC8F;strokeColor=#E07A5F;fontColor=#393C56;" vertex="1" parent="Z8EWrzKrz8ywu-EtmhU7-84">
          <mxGeometry y="78" width="160" height="26" as="geometry" />
        </mxCell>
        <mxCell id="Z8EWrzKrz8ywu-EtmhU7-88" value="name : char[]" style="text;align=left;verticalAlign=top;spacingLeft=4;spacingRight=4;overflow=hidden;rotatable=0;points=[[0,0.5],[1,0.5]];portConstraint=eastwest;shadow=0;html=0;fillColor=#F2CC8F;strokeColor=#E07A5F;fontColor=#393C56;" vertex="1" parent="Z8EWrzKrz8ywu-EtmhU7-84">
          <mxGeometry y="104" width="160" height="26" as="geometry" />
        </mxCell>
        <mxCell id="Z8EWrzKrz8ywu-EtmhU7-47" value="ChangeType : enum" style="swimlane;fontStyle=2;align=center;verticalAlign=top;childLayout=stackLayout;horizontal=1;startSize=26;horizontalStack=0;resizeParent=1;resizeLast=0;collapsible=1;marginBottom=0;shadow=0;strokeWidth=1;fillColor=#F2CC8F;strokeColor=#E07A5F;fontColor=#393C56;" vertex="1" parent="WIyWlLk6GJQsqaUBKTNV-1">
          <mxGeometry x="218" y="163" width="160" height="104" as="geometry">
            <mxRectangle x="220" y="120" width="160" height="26" as="alternateBounds" />
          </mxGeometry>
        </mxCell>
        <mxCell id="Z8EWrzKrz8ywu-EtmhU7-48" value="NewPlayer" style="text;align=left;verticalAlign=top;spacingLeft=4;spacingRight=4;overflow=hidden;rotatable=0;points=[[0,0.5],[1,0.5]];portConstraint=eastwest;fillColor=#F2CC8F;strokeColor=#E07A5F;fontColor=#393C56;" vertex="1" parent="Z8EWrzKrz8ywu-EtmhU7-47">
          <mxGeometry y="26" width="160" height="26" as="geometry" />
        </mxCell>
        <mxCell id="Z8EWrzKrz8ywu-EtmhU7-49" value="PlayerLeave" style="text;align=left;verticalAlign=top;spacingLeft=4;spacingRight=4;overflow=hidden;rotatable=0;points=[[0,0.5],[1,0.5]];portConstraint=eastwest;shadow=0;html=0;fillColor=#F2CC8F;strokeColor=#E07A5F;fontColor=#393C56;" vertex="1" parent="Z8EWrzKrz8ywu-EtmhU7-47">
          <mxGeometry y="52" width="160" height="26" as="geometry" />
        </mxCell>
        <mxCell id="Z8EWrzKrz8ywu-EtmhU7-50" value="NewPlayerPosition" style="text;align=left;verticalAlign=top;spacingLeft=4;spacingRight=4;overflow=hidden;rotatable=0;points=[[0,0.5],[1,0.5]];portConstraint=eastwest;shadow=0;html=0;fillColor=#F2CC8F;strokeColor=#E07A5F;fontColor=#393C56;" vertex="1" parent="Z8EWrzKrz8ywu-EtmhU7-47">
          <mxGeometry y="78" width="160" height="26" as="geometry" />
        </mxCell>
        <mxCell id="Z8EWrzKrz8ywu-EtmhU7-22" value="MsgHead: struct" style="swimlane;fontStyle=2;align=center;verticalAlign=top;childLayout=stackLayout;horizontal=1;startSize=26;horizontalStack=0;resizeParent=1;resizeLast=0;collapsible=1;marginBottom=0;shadow=0;strokeWidth=1;fillColor=#F2CC8F;strokeColor=#E07A5F;fontColor=#393C56;" vertex="1" parent="WIyWlLk6GJQsqaUBKTNV-1">
          <mxGeometry x="218" y="9" width="160" height="130" as="geometry">
            <mxRectangle x="220" y="120" width="160" height="26" as="alternateBounds" />
          </mxGeometry>
        </mxCell>
        <mxCell id="Z8EWrzKrz8ywu-EtmhU7-23" value="length : unsigned int" style="text;align=left;verticalAlign=top;spacingLeft=4;spacingRight=4;overflow=hidden;rotatable=0;points=[[0,0.5],[1,0.5]];portConstraint=eastwest;fillColor=#F2CC8F;strokeColor=#E07A5F;fontColor=#393C56;" vertex="1" parent="Z8EWrzKrz8ywu-EtmhU7-22">
          <mxGeometry y="26" width="160" height="26" as="geometry" />
        </mxCell>
        <mxCell id="Z8EWrzKrz8ywu-EtmhU7-24" value="seqNo : unsigned int" style="text;align=left;verticalAlign=top;spacingLeft=4;spacingRight=4;overflow=hidden;rotatable=0;points=[[0,0.5],[1,0.5]];portConstraint=eastwest;shadow=0;html=0;fillColor=#F2CC8F;strokeColor=#E07A5F;fontColor=#393C56;" vertex="1" parent="Z8EWrzKrz8ywu-EtmhU7-22">
          <mxGeometry y="52" width="160" height="26" as="geometry" />
        </mxCell>
        <mxCell id="Z8EWrzKrz8ywu-EtmhU7-25" value="id : unsigned int" style="text;align=left;verticalAlign=top;spacingLeft=4;spacingRight=4;overflow=hidden;rotatable=0;points=[[0,0.5],[1,0.5]];portConstraint=eastwest;shadow=0;html=0;fillColor=#F2CC8F;strokeColor=#E07A5F;fontColor=#393C56;" vertex="1" parent="Z8EWrzKrz8ywu-EtmhU7-22">
          <mxGeometry y="78" width="160" height="26" as="geometry" />
        </mxCell>
        <mxCell id="Z8EWrzKrz8ywu-EtmhU7-26" value="type : MsgType" style="text;align=left;verticalAlign=top;spacingLeft=4;spacingRight=4;overflow=hidden;rotatable=0;points=[[0,0.5],[1,0.5]];portConstraint=eastwest;shadow=0;html=0;fillColor=#F2CC8F;strokeColor=#E07A5F;fontColor=#393C56;" vertex="1" parent="Z8EWrzKrz8ywu-EtmhU7-22">
          <mxGeometry y="104" width="160" height="26" as="geometry" />
        </mxCell>
        <mxCell id="Z8EWrzKrz8ywu-EtmhU7-114" value="" style="endArrow=classic;html=1;strokeColor=#E07A5F;fillColor=#F2CC8F;fontColor=#393C56;entryX=0.988;entryY=0.141;entryDx=0;entryDy=0;entryPerimeter=0;exitX=0;exitY=0.5;exitDx=0;exitDy=0;" edge="1" parent="WIyWlLk6GJQsqaUBKTNV-1" source="Z8EWrzKrz8ywu-EtmhU7-111" target="Z8EWrzKrz8ywu-EtmhU7-5">
          <mxGeometry width="50" height="50" relative="1" as="geometry">
            <mxPoint x="538" y="119" as="sourcePoint" />
            <mxPoint x="441.9599999999998" y="113.03999999999996" as="targetPoint" />
          </mxGeometry>
        </mxCell>
        <mxCell id="Z8EWrzKrz8ywu-EtmhU7-115" value="" style="endArrow=classic;html=1;strokeColor=#E07A5F;fillColor=#F2CC8F;fontColor=#393C56;exitX=0;exitY=0.5;exitDx=0;exitDy=0;" edge="1" parent="WIyWlLk6GJQsqaUBKTNV-1" source="Z8EWrzKrz8ywu-EtmhU7-112">
          <mxGeometry width="50" height="50" relative="1" as="geometry">
            <mxPoint x="548" y="129" as="sourcePoint" />
            <mxPoint x="184" y="675" as="targetPoint" />
          </mxGeometry>
        </mxCell>
        <mxCell id="Z8EWrzKrz8ywu-EtmhU7-109" value="NewPlayerPositionMsg: struct" style="swimlane;fontStyle=2;align=center;verticalAlign=top;childLayout=stackLayout;horizontal=1;startSize=26;horizontalStack=0;resizeParent=1;resizeLast=0;collapsible=1;marginBottom=0;shadow=0;strokeWidth=1;fillColor=#F2CC8F;strokeColor=#E07A5F;fontColor=#393C56;" vertex="1" parent="WIyWlLk6GJQsqaUBKTNV-1">
          <mxGeometry x="712" y="527" width="160" height="104" as="geometry">
            <mxRectangle x="220" y="120" width="160" height="26" as="alternateBounds" />
          </mxGeometry>
        </mxCell>
        <mxCell id="Z8EWrzKrz8ywu-EtmhU7-110" value="ChangeMsg msg" style="text;align=left;verticalAlign=top;spacingLeft=4;spacingRight=4;overflow=hidden;rotatable=0;points=[[0,0.5],[1,0.5]];portConstraint=eastwest;fillColor=#F2CC8F;strokeColor=#E07A5F;fontColor=#393C56;" vertex="1" parent="Z8EWrzKrz8ywu-EtmhU7-109">
          <mxGeometry y="26" width="160" height="26" as="geometry" />
        </mxCell>
        <mxCell id="Z8EWrzKrz8ywu-EtmhU7-111" value="pos : Coordinate" style="text;align=left;verticalAlign=top;spacingLeft=4;spacingRight=4;overflow=hidden;rotatable=0;points=[[0,0.5],[1,0.5]];portConstraint=eastwest;shadow=0;html=0;fillColor=#F2CC8F;strokeColor=#E07A5F;fontColor=#393C56;" vertex="1" parent="Z8EWrzKrz8ywu-EtmhU7-109">
          <mxGeometry y="52" width="160" height="26" as="geometry" />
        </mxCell>
        <mxCell id="Z8EWrzKrz8ywu-EtmhU7-112" value="dir : Coordinate" style="text;align=left;verticalAlign=top;spacingLeft=4;spacingRight=4;overflow=hidden;rotatable=0;points=[[0,0.5],[1,0.5]];portConstraint=eastwest;shadow=0;html=0;fillColor=#F2CC8F;strokeColor=#E07A5F;fontColor=#393C56;" vertex="1" parent="Z8EWrzKrz8ywu-EtmhU7-109">
          <mxGeometry y="78" width="160" height="26" as="geometry" />
        </mxCell>
        <mxCell id="Z8EWrzKrz8ywu-EtmhU7-116" value="" style="endArrow=classic;html=1;strokeColor=#E07A5F;fillColor=#F2CC8F;fontColor=#393C56;entryX=1;entryY=0.25;entryDx=0;entryDy=0;exitX=0;exitY=0.5;exitDx=0;exitDy=0;" edge="1" parent="WIyWlLk6GJQsqaUBKTNV-1" source="Z8EWrzKrz8ywu-EtmhU7-110" target="Z8EWrzKrz8ywu-EtmhU7-52">
          <mxGeometry width="50" height="50" relative="1" as="geometry">
            <mxPoint x="558" y="139" as="sourcePoint" />
            <mxPoint x="461.9599999999998" y="133.03999999999996" as="targetPoint" />
          </mxGeometry>
        </mxCell>
      </root>
    </mxGraphModel>
  </diagram>
</mxfile>
